<mxfile host="app.diagrams.net" modified="2023-09-25T22:18:07.331Z" agent="Mozilla/5.0 (Macintosh; Intel Mac OS X 10_15_7) AppleWebKit/537.36 (KHTML, like Gecko) Chrome/116.0.0.0 Safari/537.36" etag="kB0Fc_ga__Zg7e6ak0Zr" version="21.8.0" type="device">
  <diagram id="C5RBs43oDa-KdzZeNtuy" name="Page-1">
    <mxGraphModel dx="1853" dy="665" grid="1" gridSize="10" guides="1" tooltips="1" connect="1" arrows="1" fold="1" page="1" pageScale="1" pageWidth="827" pageHeight="1169" math="0" shadow="0">
      <root>
        <mxCell id="WIyWlLk6GJQsqaUBKTNV-0" />
        <mxCell id="WIyWlLk6GJQsqaUBKTNV-1" parent="WIyWlLk6GJQsqaUBKTNV-0" />
        <mxCell id="Y0iHHmPsQCYmJBBxY2d6-0" value="Start" style="ellipse;whiteSpace=wrap;html=1;" vertex="1" parent="WIyWlLk6GJQsqaUBKTNV-1">
          <mxGeometry x="190" y="20" width="120" height="50" as="geometry" />
        </mxCell>
        <mxCell id="Y0iHHmPsQCYmJBBxY2d6-1" value="Play?" style="rhombus;whiteSpace=wrap;html=1;" vertex="1" parent="WIyWlLk6GJQsqaUBKTNV-1">
          <mxGeometry x="210" y="100" width="80" height="80" as="geometry" />
        </mxCell>
        <mxCell id="Y0iHHmPsQCYmJBBxY2d6-2" value="End" style="ellipse;whiteSpace=wrap;html=1;" vertex="1" parent="WIyWlLk6GJQsqaUBKTNV-1">
          <mxGeometry x="-12.5" y="230" width="120" height="50" as="geometry" />
        </mxCell>
        <mxCell id="Y0iHHmPsQCYmJBBxY2d6-3" value="" style="endArrow=classic;html=1;rounded=0;exitX=0;exitY=0.5;exitDx=0;exitDy=0;entryX=0.5;entryY=0;entryDx=0;entryDy=0;" edge="1" parent="WIyWlLk6GJQsqaUBKTNV-1" source="Y0iHHmPsQCYmJBBxY2d6-1" target="Y0iHHmPsQCYmJBBxY2d6-2">
          <mxGeometry width="50" height="50" relative="1" as="geometry">
            <mxPoint x="169" y="140" as="sourcePoint" />
            <mxPoint x="399" y="270" as="targetPoint" />
            <Array as="points">
              <mxPoint x="48" y="140" />
            </Array>
          </mxGeometry>
        </mxCell>
        <mxCell id="Y0iHHmPsQCYmJBBxY2d6-4" value="No" style="text;html=1;strokeColor=none;fillColor=none;align=center;verticalAlign=middle;whiteSpace=wrap;rounded=0;" vertex="1" parent="WIyWlLk6GJQsqaUBKTNV-1">
          <mxGeometry x="107.5" y="110" width="60" height="30" as="geometry" />
        </mxCell>
        <mxCell id="Y0iHHmPsQCYmJBBxY2d6-5" value="Yes" style="text;html=1;strokeColor=none;fillColor=none;align=center;verticalAlign=middle;whiteSpace=wrap;rounded=0;" vertex="1" parent="WIyWlLk6GJQsqaUBKTNV-1">
          <mxGeometry x="200" y="180" width="60" height="30" as="geometry" />
        </mxCell>
        <mxCell id="Y0iHHmPsQCYmJBBxY2d6-6" value="" style="endArrow=classic;html=1;rounded=0;exitX=0.5;exitY=1;exitDx=0;exitDy=0;entryX=0.5;entryY=0;entryDx=0;entryDy=0;" edge="1" parent="WIyWlLk6GJQsqaUBKTNV-1" source="Y0iHHmPsQCYmJBBxY2d6-0" target="Y0iHHmPsQCYmJBBxY2d6-1">
          <mxGeometry width="50" height="50" relative="1" as="geometry">
            <mxPoint x="390" y="320" as="sourcePoint" />
            <mxPoint x="440" y="270" as="targetPoint" />
          </mxGeometry>
        </mxCell>
        <mxCell id="Y0iHHmPsQCYmJBBxY2d6-7" value="Deal 2 cards&lt;br&gt;(user &amp;amp; dealer)" style="rounded=1;whiteSpace=wrap;html=1;" vertex="1" parent="WIyWlLk6GJQsqaUBKTNV-1">
          <mxGeometry x="190" y="220" width="120" height="60" as="geometry" />
        </mxCell>
        <mxCell id="Y0iHHmPsQCYmJBBxY2d6-8" value="" style="endArrow=classic;html=1;rounded=0;entryX=0.5;entryY=0;entryDx=0;entryDy=0;" edge="1" parent="WIyWlLk6GJQsqaUBKTNV-1" source="Y0iHHmPsQCYmJBBxY2d6-1" target="Y0iHHmPsQCYmJBBxY2d6-7">
          <mxGeometry width="50" height="50" relative="1" as="geometry">
            <mxPoint x="390" y="320" as="sourcePoint" />
            <mxPoint x="440" y="270" as="targetPoint" />
          </mxGeometry>
        </mxCell>
        <mxCell id="Y0iHHmPsQCYmJBBxY2d6-11" value="" style="edgeStyle=orthogonalEdgeStyle;rounded=0;orthogonalLoop=1;jettySize=auto;html=1;" edge="1" parent="WIyWlLk6GJQsqaUBKTNV-1" target="Y0iHHmPsQCYmJBBxY2d6-10">
          <mxGeometry relative="1" as="geometry">
            <mxPoint x="150" y="360" as="sourcePoint" />
          </mxGeometry>
        </mxCell>
        <mxCell id="Y0iHHmPsQCYmJBBxY2d6-16" value="" style="edgeStyle=orthogonalEdgeStyle;rounded=0;orthogonalLoop=1;jettySize=auto;html=1;" edge="1" parent="WIyWlLk6GJQsqaUBKTNV-1" source="Y0iHHmPsQCYmJBBxY2d6-9" target="Y0iHHmPsQCYmJBBxY2d6-15">
          <mxGeometry relative="1" as="geometry" />
        </mxCell>
        <mxCell id="Y0iHHmPsQCYmJBBxY2d6-9" value="dealer cards contains&lt;br&gt;[Ace + 10]?" style="rhombus;whiteSpace=wrap;html=1;" vertex="1" parent="WIyWlLk6GJQsqaUBKTNV-1">
          <mxGeometry x="152.5" y="310" width="195" height="100" as="geometry" />
        </mxCell>
        <mxCell id="Y0iHHmPsQCYmJBBxY2d6-10" value="Dealer wins" style="rounded=1;whiteSpace=wrap;html=1;" vertex="1" parent="WIyWlLk6GJQsqaUBKTNV-1">
          <mxGeometry x="2.5" y="335" width="90" height="50" as="geometry" />
        </mxCell>
        <mxCell id="Y0iHHmPsQCYmJBBxY2d6-12" value="" style="endArrow=classic;html=1;rounded=0;exitX=0.5;exitY=0;exitDx=0;exitDy=0;entryX=0.5;entryY=1;entryDx=0;entryDy=0;" edge="1" parent="WIyWlLk6GJQsqaUBKTNV-1" source="Y0iHHmPsQCYmJBBxY2d6-10" target="Y0iHHmPsQCYmJBBxY2d6-2">
          <mxGeometry width="50" height="50" relative="1" as="geometry">
            <mxPoint x="357.5" y="390" as="sourcePoint" />
            <mxPoint x="407.5" y="340" as="targetPoint" />
          </mxGeometry>
        </mxCell>
        <mxCell id="Y0iHHmPsQCYmJBBxY2d6-13" value="Yes" style="text;html=1;strokeColor=none;fillColor=none;align=center;verticalAlign=middle;whiteSpace=wrap;rounded=0;" vertex="1" parent="WIyWlLk6GJQsqaUBKTNV-1">
          <mxGeometry x="90" y="330" width="60" height="30" as="geometry" />
        </mxCell>
        <mxCell id="Y0iHHmPsQCYmJBBxY2d6-14" value="" style="endArrow=classic;html=1;rounded=0;exitX=0.5;exitY=1;exitDx=0;exitDy=0;entryX=0.5;entryY=0;entryDx=0;entryDy=0;" edge="1" parent="WIyWlLk6GJQsqaUBKTNV-1" source="Y0iHHmPsQCYmJBBxY2d6-7" target="Y0iHHmPsQCYmJBBxY2d6-9">
          <mxGeometry width="50" height="50" relative="1" as="geometry">
            <mxPoint x="390" y="340" as="sourcePoint" />
            <mxPoint x="440" y="290" as="targetPoint" />
          </mxGeometry>
        </mxCell>
        <mxCell id="Y0iHHmPsQCYmJBBxY2d6-19" value="" style="edgeStyle=orthogonalEdgeStyle;rounded=0;orthogonalLoop=1;jettySize=auto;html=1;" edge="1" parent="WIyWlLk6GJQsqaUBKTNV-1" target="Y0iHHmPsQCYmJBBxY2d6-18">
          <mxGeometry relative="1" as="geometry">
            <mxPoint x="150" y="490" as="sourcePoint" />
          </mxGeometry>
        </mxCell>
        <mxCell id="Y0iHHmPsQCYmJBBxY2d6-23" value="" style="edgeStyle=orthogonalEdgeStyle;rounded=0;orthogonalLoop=1;jettySize=auto;html=1;" edge="1" parent="WIyWlLk6GJQsqaUBKTNV-1" source="Y0iHHmPsQCYmJBBxY2d6-15" target="Y0iHHmPsQCYmJBBxY2d6-22">
          <mxGeometry relative="1" as="geometry" />
        </mxCell>
        <mxCell id="Y0iHHmPsQCYmJBBxY2d6-15" value="user cards contains&lt;br&gt;[Ace + 10]?" style="rhombus;whiteSpace=wrap;html=1;" vertex="1" parent="WIyWlLk6GJQsqaUBKTNV-1">
          <mxGeometry x="152.5" y="440" width="195" height="100" as="geometry" />
        </mxCell>
        <mxCell id="Y0iHHmPsQCYmJBBxY2d6-17" value="No" style="text;html=1;strokeColor=none;fillColor=none;align=center;verticalAlign=middle;whiteSpace=wrap;rounded=0;" vertex="1" parent="WIyWlLk6GJQsqaUBKTNV-1">
          <mxGeometry x="200" y="410" width="60" height="30" as="geometry" />
        </mxCell>
        <mxCell id="Y0iHHmPsQCYmJBBxY2d6-18" value="user wins" style="rounded=1;whiteSpace=wrap;html=1;" vertex="1" parent="WIyWlLk6GJQsqaUBKTNV-1">
          <mxGeometry x="2.5" y="465" width="90" height="50" as="geometry" />
        </mxCell>
        <mxCell id="Y0iHHmPsQCYmJBBxY2d6-20" value="" style="endArrow=classic;html=1;rounded=0;exitX=0;exitY=0.5;exitDx=0;exitDy=0;entryX=0;entryY=0.5;entryDx=0;entryDy=0;" edge="1" parent="WIyWlLk6GJQsqaUBKTNV-1" source="Y0iHHmPsQCYmJBBxY2d6-18" target="Y0iHHmPsQCYmJBBxY2d6-2">
          <mxGeometry width="50" height="50" relative="1" as="geometry">
            <mxPoint x="357.5" y="400" as="sourcePoint" />
            <mxPoint x="407.5" y="350" as="targetPoint" />
            <Array as="points">
              <mxPoint x="-32.5" y="490" />
              <mxPoint x="-32.5" y="255" />
            </Array>
          </mxGeometry>
        </mxCell>
        <mxCell id="Y0iHHmPsQCYmJBBxY2d6-21" value="Yes" style="text;html=1;strokeColor=none;fillColor=none;align=center;verticalAlign=middle;whiteSpace=wrap;rounded=0;" vertex="1" parent="WIyWlLk6GJQsqaUBKTNV-1">
          <mxGeometry x="90" y="460" width="60" height="30" as="geometry" />
        </mxCell>
        <mxCell id="Y0iHHmPsQCYmJBBxY2d6-27" value="" style="edgeStyle=orthogonalEdgeStyle;rounded=0;orthogonalLoop=1;jettySize=auto;html=1;" edge="1" parent="WIyWlLk6GJQsqaUBKTNV-1" source="Y0iHHmPsQCYmJBBxY2d6-22" target="Y0iHHmPsQCYmJBBxY2d6-26">
          <mxGeometry relative="1" as="geometry" />
        </mxCell>
        <mxCell id="Y0iHHmPsQCYmJBBxY2d6-22" value="Compute scores &amp;amp; display cards" style="rounded=1;whiteSpace=wrap;html=1;" vertex="1" parent="WIyWlLk6GJQsqaUBKTNV-1">
          <mxGeometry x="390" y="460" width="120" height="60" as="geometry" />
        </mxCell>
        <mxCell id="Y0iHHmPsQCYmJBBxY2d6-24" value="No" style="text;html=1;strokeColor=none;fillColor=none;align=center;verticalAlign=middle;whiteSpace=wrap;rounded=0;" vertex="1" parent="WIyWlLk6GJQsqaUBKTNV-1">
          <mxGeometry x="330" y="460" width="60" height="30" as="geometry" />
        </mxCell>
        <mxCell id="Y0iHHmPsQCYmJBBxY2d6-25" value="" style="endArrow=classic;html=1;rounded=0;exitX=1;exitY=0.5;exitDx=0;exitDy=0;entryX=0;entryY=0.5;entryDx=0;entryDy=0;" edge="1" parent="WIyWlLk6GJQsqaUBKTNV-1" source="Y0iHHmPsQCYmJBBxY2d6-2" target="Y0iHHmPsQCYmJBBxY2d6-1">
          <mxGeometry width="50" height="50" relative="1" as="geometry">
            <mxPoint x="390" y="360" as="sourcePoint" />
            <mxPoint x="150" y="180" as="targetPoint" />
            <Array as="points">
              <mxPoint x="170" y="255" />
              <mxPoint x="170" y="140" />
            </Array>
          </mxGeometry>
        </mxCell>
        <mxCell id="Y0iHHmPsQCYmJBBxY2d6-29" value="" style="edgeStyle=orthogonalEdgeStyle;rounded=0;orthogonalLoop=1;jettySize=auto;html=1;exitX=0;exitY=0.5;exitDx=0;exitDy=0;entryX=1;entryY=0.5;entryDx=0;entryDy=0;" edge="1" parent="WIyWlLk6GJQsqaUBKTNV-1" source="Y0iHHmPsQCYmJBBxY2d6-26" target="Y0iHHmPsQCYmJBBxY2d6-28">
          <mxGeometry relative="1" as="geometry" />
        </mxCell>
        <mxCell id="Y0iHHmPsQCYmJBBxY2d6-26" value="Deal?" style="rhombus;whiteSpace=wrap;html=1;rounded=1;" vertex="1" parent="WIyWlLk6GJQsqaUBKTNV-1">
          <mxGeometry x="410" y="560" width="80" height="80" as="geometry" />
        </mxCell>
        <mxCell id="Y0iHHmPsQCYmJBBxY2d6-36" value="" style="edgeStyle=orthogonalEdgeStyle;rounded=0;orthogonalLoop=1;jettySize=auto;html=1;" edge="1" parent="WIyWlLk6GJQsqaUBKTNV-1" source="Y0iHHmPsQCYmJBBxY2d6-28" target="Y0iHHmPsQCYmJBBxY2d6-31">
          <mxGeometry relative="1" as="geometry" />
        </mxCell>
        <mxCell id="Y0iHHmPsQCYmJBBxY2d6-47" value="" style="edgeStyle=orthogonalEdgeStyle;rounded=0;orthogonalLoop=1;jettySize=auto;html=1;exitX=0;exitY=0.5;exitDx=0;exitDy=0;" edge="1" parent="WIyWlLk6GJQsqaUBKTNV-1" source="Y0iHHmPsQCYmJBBxY2d6-28" target="Y0iHHmPsQCYmJBBxY2d6-46">
          <mxGeometry relative="1" as="geometry">
            <mxPoint x="160" y="600" as="sourcePoint" />
          </mxGeometry>
        </mxCell>
        <mxCell id="Y0iHHmPsQCYmJBBxY2d6-28" value="Dealer score &amp;lt;=16" style="rhombus;whiteSpace=wrap;html=1;rounded=1;" vertex="1" parent="WIyWlLk6GJQsqaUBKTNV-1">
          <mxGeometry x="180" y="550" width="140" height="100" as="geometry" />
        </mxCell>
        <mxCell id="Y0iHHmPsQCYmJBBxY2d6-30" value="No" style="text;html=1;strokeColor=none;fillColor=none;align=center;verticalAlign=middle;whiteSpace=wrap;rounded=0;" vertex="1" parent="WIyWlLk6GJQsqaUBKTNV-1">
          <mxGeometry x="340" y="570" width="60" height="30" as="geometry" />
        </mxCell>
        <mxCell id="Y0iHHmPsQCYmJBBxY2d6-33" value="" style="edgeStyle=orthogonalEdgeStyle;rounded=0;orthogonalLoop=1;jettySize=auto;html=1;" edge="1" parent="WIyWlLk6GJQsqaUBKTNV-1" source="Y0iHHmPsQCYmJBBxY2d6-31" target="Y0iHHmPsQCYmJBBxY2d6-32">
          <mxGeometry relative="1" as="geometry" />
        </mxCell>
        <mxCell id="Y0iHHmPsQCYmJBBxY2d6-31" value="Deal a random card" style="rounded=1;whiteSpace=wrap;html=1;" vertex="1" parent="WIyWlLk6GJQsqaUBKTNV-1">
          <mxGeometry x="190" y="690" width="120" height="60" as="geometry" />
        </mxCell>
        <mxCell id="Y0iHHmPsQCYmJBBxY2d6-35" value="" style="edgeStyle=orthogonalEdgeStyle;rounded=0;orthogonalLoop=1;jettySize=auto;html=1;exitX=0;exitY=0.5;exitDx=0;exitDy=0;" edge="1" parent="WIyWlLk6GJQsqaUBKTNV-1" source="Y0iHHmPsQCYmJBBxY2d6-32" target="Y0iHHmPsQCYmJBBxY2d6-34">
          <mxGeometry relative="1" as="geometry">
            <mxPoint x="165" y="825" as="sourcePoint" />
          </mxGeometry>
        </mxCell>
        <mxCell id="Y0iHHmPsQCYmJBBxY2d6-32" value="Card is Ace?" style="rhombus;whiteSpace=wrap;html=1;rounded=1;" vertex="1" parent="WIyWlLk6GJQsqaUBKTNV-1">
          <mxGeometry x="195" y="780" width="110" height="90" as="geometry" />
        </mxCell>
        <mxCell id="Y0iHHmPsQCYmJBBxY2d6-40" value="" style="edgeStyle=orthogonalEdgeStyle;rounded=0;orthogonalLoop=1;jettySize=auto;html=1;" edge="1" parent="WIyWlLk6GJQsqaUBKTNV-1" source="Y0iHHmPsQCYmJBBxY2d6-34" target="Y0iHHmPsQCYmJBBxY2d6-39">
          <mxGeometry relative="1" as="geometry" />
        </mxCell>
        <mxCell id="Y0iHHmPsQCYmJBBxY2d6-43" value="" style="edgeStyle=orthogonalEdgeStyle;rounded=0;orthogonalLoop=1;jettySize=auto;html=1;" edge="1" parent="WIyWlLk6GJQsqaUBKTNV-1" source="Y0iHHmPsQCYmJBBxY2d6-34" target="Y0iHHmPsQCYmJBBxY2d6-42">
          <mxGeometry relative="1" as="geometry" />
        </mxCell>
        <mxCell id="Y0iHHmPsQCYmJBBxY2d6-34" value="Card + dealer&lt;br&gt;score &amp;gt; 21?" style="rhombus;whiteSpace=wrap;html=1;rounded=1;" vertex="1" parent="WIyWlLk6GJQsqaUBKTNV-1">
          <mxGeometry x="-20" y="780" width="135" height="90" as="geometry" />
        </mxCell>
        <mxCell id="Y0iHHmPsQCYmJBBxY2d6-37" value="Yes" style="text;html=1;strokeColor=none;fillColor=none;align=center;verticalAlign=middle;whiteSpace=wrap;rounded=0;" vertex="1" parent="WIyWlLk6GJQsqaUBKTNV-1">
          <mxGeometry x="240" y="650" width="60" height="30" as="geometry" />
        </mxCell>
        <mxCell id="Y0iHHmPsQCYmJBBxY2d6-38" value="Yes" style="text;html=1;strokeColor=none;fillColor=none;align=center;verticalAlign=middle;whiteSpace=wrap;rounded=0;" vertex="1" parent="WIyWlLk6GJQsqaUBKTNV-1">
          <mxGeometry x="135" y="795" width="60" height="30" as="geometry" />
        </mxCell>
        <mxCell id="Y0iHHmPsQCYmJBBxY2d6-39" value="Dealer score + 1&lt;br&gt;&amp;amp;&lt;br&gt;Dealer cards + 1" style="rounded=1;whiteSpace=wrap;html=1;" vertex="1" parent="WIyWlLk6GJQsqaUBKTNV-1">
          <mxGeometry x="-170" y="795" width="120" height="60" as="geometry" />
        </mxCell>
        <mxCell id="Y0iHHmPsQCYmJBBxY2d6-41" value="Yes" style="text;html=1;strokeColor=none;fillColor=none;align=center;verticalAlign=middle;whiteSpace=wrap;rounded=0;" vertex="1" parent="WIyWlLk6GJQsqaUBKTNV-1">
          <mxGeometry x="-60" y="800" width="60" height="30" as="geometry" />
        </mxCell>
        <mxCell id="Y0iHHmPsQCYmJBBxY2d6-42" value="Dealer score + 11&lt;br style=&quot;border-color: var(--border-color);&quot;&gt;&amp;amp;&lt;br style=&quot;border-color: var(--border-color);&quot;&gt;Dealer cards + card" style="whiteSpace=wrap;html=1;rounded=1;" vertex="1" parent="WIyWlLk6GJQsqaUBKTNV-1">
          <mxGeometry x="-12.5" y="690" width="120" height="60" as="geometry" />
        </mxCell>
        <mxCell id="Y0iHHmPsQCYmJBBxY2d6-60" value="" style="edgeStyle=orthogonalEdgeStyle;rounded=0;orthogonalLoop=1;jettySize=auto;html=1;" edge="1" parent="WIyWlLk6GJQsqaUBKTNV-1" source="Y0iHHmPsQCYmJBBxY2d6-46">
          <mxGeometry relative="1" as="geometry">
            <mxPoint x="-140" y="600" as="targetPoint" />
          </mxGeometry>
        </mxCell>
        <mxCell id="Y0iHHmPsQCYmJBBxY2d6-46" value="Dealer score&lt;br&gt;&amp;gt;&lt;br&gt;User score" style="rhombus;whiteSpace=wrap;html=1;rounded=1;" vertex="1" parent="WIyWlLk6GJQsqaUBKTNV-1">
          <mxGeometry x="-27.5" y="545" width="150" height="110" as="geometry" />
        </mxCell>
        <mxCell id="Y0iHHmPsQCYmJBBxY2d6-48" value="No" style="text;html=1;strokeColor=none;fillColor=none;align=center;verticalAlign=middle;whiteSpace=wrap;rounded=0;" vertex="1" parent="WIyWlLk6GJQsqaUBKTNV-1">
          <mxGeometry x="130" y="570" width="60" height="30" as="geometry" />
        </mxCell>
        <mxCell id="Y0iHHmPsQCYmJBBxY2d6-49" value="" style="endArrow=classic;html=1;rounded=0;exitX=0;exitY=0.5;exitDx=0;exitDy=0;entryX=0;entryY=0.5;entryDx=0;entryDy=0;" edge="1" parent="WIyWlLk6GJQsqaUBKTNV-1" source="Y0iHHmPsQCYmJBBxY2d6-46" target="Y0iHHmPsQCYmJBBxY2d6-10">
          <mxGeometry width="50" height="50" relative="1" as="geometry">
            <mxPoint x="90" y="540" as="sourcePoint" />
            <mxPoint x="140" y="490" as="targetPoint" />
            <Array as="points">
              <mxPoint x="-80" y="600" />
              <mxPoint x="-80" y="360" />
            </Array>
          </mxGeometry>
        </mxCell>
        <mxCell id="Y0iHHmPsQCYmJBBxY2d6-50" value="Yes" style="text;html=1;strokeColor=none;fillColor=none;align=center;verticalAlign=middle;whiteSpace=wrap;rounded=0;" vertex="1" parent="WIyWlLk6GJQsqaUBKTNV-1">
          <mxGeometry x="-100" y="570" width="60" height="30" as="geometry" />
        </mxCell>
        <mxCell id="Y0iHHmPsQCYmJBBxY2d6-55" value="" style="endArrow=classic;html=1;rounded=0;exitX=1;exitY=0.5;exitDx=0;exitDy=0;entryX=0.9;entryY=1.067;entryDx=0;entryDy=0;entryPerimeter=0;" edge="1" parent="WIyWlLk6GJQsqaUBKTNV-1" source="Y0iHHmPsQCYmJBBxY2d6-42" target="Y0iHHmPsQCYmJBBxY2d6-48">
          <mxGeometry width="50" height="50" relative="1" as="geometry">
            <mxPoint x="60" y="730" as="sourcePoint" />
            <mxPoint x="150" y="620" as="targetPoint" />
            <Array as="points">
              <mxPoint x="150" y="720" />
              <mxPoint x="150" y="602" />
            </Array>
          </mxGeometry>
        </mxCell>
        <mxCell id="Y0iHHmPsQCYmJBBxY2d6-56" value="" style="endArrow=classic;html=1;rounded=0;exitX=0.5;exitY=0;exitDx=0;exitDy=0;" edge="1" parent="WIyWlLk6GJQsqaUBKTNV-1" source="Y0iHHmPsQCYmJBBxY2d6-39">
          <mxGeometry width="50" height="50" relative="1" as="geometry">
            <mxPoint x="60" y="730" as="sourcePoint" />
            <mxPoint x="180" y="600" as="targetPoint" />
            <Array as="points">
              <mxPoint x="-110" y="670" />
              <mxPoint x="150" y="670" />
              <mxPoint x="150" y="600" />
            </Array>
          </mxGeometry>
        </mxCell>
        <mxCell id="Y0iHHmPsQCYmJBBxY2d6-61" value="No" style="text;html=1;strokeColor=none;fillColor=none;align=center;verticalAlign=middle;whiteSpace=wrap;rounded=0;" vertex="1" parent="WIyWlLk6GJQsqaUBKTNV-1">
          <mxGeometry x="-140" y="600" width="60" height="30" as="geometry" />
        </mxCell>
        <mxCell id="Y0iHHmPsQCYmJBBxY2d6-64" value="" style="edgeStyle=orthogonalEdgeStyle;rounded=0;orthogonalLoop=1;jettySize=auto;html=1;" edge="1" parent="WIyWlLk6GJQsqaUBKTNV-1" source="Y0iHHmPsQCYmJBBxY2d6-62" target="Y0iHHmPsQCYmJBBxY2d6-63">
          <mxGeometry relative="1" as="geometry" />
        </mxCell>
        <mxCell id="Y0iHHmPsQCYmJBBxY2d6-62" value="Dealer score&lt;br style=&quot;border-color: var(--border-color);&quot;&gt;==&lt;br style=&quot;border-color: var(--border-color);&quot;&gt;User score" style="rhombus;whiteSpace=wrap;html=1;" vertex="1" parent="WIyWlLk6GJQsqaUBKTNV-1">
          <mxGeometry x="-290" y="550" width="150" height="100" as="geometry" />
        </mxCell>
        <mxCell id="Y0iHHmPsQCYmJBBxY2d6-63" value="It&#39;s a draw" style="rounded=1;whiteSpace=wrap;html=1;" vertex="1" parent="WIyWlLk6GJQsqaUBKTNV-1">
          <mxGeometry x="-275" y="385" width="120" height="60" as="geometry" />
        </mxCell>
        <mxCell id="Y0iHHmPsQCYmJBBxY2d6-65" value="" style="endArrow=classic;html=1;rounded=0;exitX=0.5;exitY=0;exitDx=0;exitDy=0;entryX=0;entryY=0.5;entryDx=0;entryDy=0;" edge="1" parent="WIyWlLk6GJQsqaUBKTNV-1" source="Y0iHHmPsQCYmJBBxY2d6-63" target="Y0iHHmPsQCYmJBBxY2d6-2">
          <mxGeometry width="50" height="50" relative="1" as="geometry">
            <mxPoint x="60" y="450" as="sourcePoint" />
            <mxPoint x="110" y="400" as="targetPoint" />
            <Array as="points">
              <mxPoint x="-215" y="255" />
            </Array>
          </mxGeometry>
        </mxCell>
        <mxCell id="Y0iHHmPsQCYmJBBxY2d6-66" value="Yes" style="text;html=1;strokeColor=none;fillColor=none;align=center;verticalAlign=middle;whiteSpace=wrap;rounded=0;" vertex="1" parent="WIyWlLk6GJQsqaUBKTNV-1">
          <mxGeometry x="-260" y="465" width="60" height="30" as="geometry" />
        </mxCell>
        <mxCell id="Y0iHHmPsQCYmJBBxY2d6-67" value="" style="endArrow=classic;html=1;rounded=0;exitX=0.5;exitY=0;exitDx=0;exitDy=0;entryX=0;entryY=0.5;entryDx=0;entryDy=0;" edge="1" parent="WIyWlLk6GJQsqaUBKTNV-1" source="Y0iHHmPsQCYmJBBxY2d6-62" target="Y0iHHmPsQCYmJBBxY2d6-18">
          <mxGeometry width="50" height="50" relative="1" as="geometry">
            <mxPoint x="60" y="560" as="sourcePoint" />
            <mxPoint x="110" y="510" as="targetPoint" />
            <Array as="points">
              <mxPoint x="-215" y="520" />
              <mxPoint x="-120" y="520" />
              <mxPoint x="-120" y="490" />
            </Array>
          </mxGeometry>
        </mxCell>
        <mxCell id="Y0iHHmPsQCYmJBBxY2d6-68" value="No" style="text;html=1;strokeColor=none;fillColor=none;align=center;verticalAlign=middle;whiteSpace=wrap;rounded=0;" vertex="1" parent="WIyWlLk6GJQsqaUBKTNV-1">
          <mxGeometry x="-190" y="515" width="60" height="30" as="geometry" />
        </mxCell>
      </root>
    </mxGraphModel>
  </diagram>
</mxfile>
